<?xml version="1.0" encoding="UTF-8" standalone="no"?>
<svg
   xmlns:dc="http://purl.org/dc/elements/1.1/"
   xmlns:cc="http://creativecommons.org/ns#"
   xmlns:rdf="http://www.w3.org/1999/02/22-rdf-syntax-ns#"
   xmlns:svg="http://www.w3.org/2000/svg"
   xmlns="http://www.w3.org/2000/svg"
   id="svg2676"
   version="1.1"
   viewBox="0 0 105.83333 105.83334"
   height="400"
   width="400">
  <defs
     id="defs2670" />
  <metadata
     id="metadata2673">
    <rdf:RDF>
      <cc:Work
         rdf:about="">
        <dc:format>image/svg+xml</dc:format>
        <dc:type
           rdf:resource="http://purl.org/dc/dcmitype/StillImage" />
        <dc:title></dc:title>
      </cc:Work>
    </rdf:RDF>
  </metadata>
  <g
     style="display:inline"
     id="layer8">
    <path
       id="path3289"
       d="M 22.985178,19.238002 52.117558,2.929315 81.517201,19.238002 V 87.926274 L 52.117558,104.60491 22.985178,87.926274 Z"
       style="fill:none;stroke:#000000;stroke-width:0.5291667;stroke-linecap:butt;stroke-linejoin:miter;stroke-miterlimit:4;stroke-dasharray:none;stroke-opacity:1" />
    <path
       id="path3291"
       d="m 22.985178,19.238002 29.13238,17.37252 29.399643,-17.37252"
       style="fill:none;stroke:#000000;stroke-width:0.5291667;stroke-linecap:butt;stroke-linejoin:miter;stroke-miterlimit:4;stroke-dasharray:none;stroke-opacity:1" />
    <path
       id="path3293"
       d="M 52.117558,104.60491 V 36.610522"
       style="fill:none;stroke:#000000;stroke-width:0.5291667;stroke-linecap:butt;stroke-linejoin:miter;stroke-miterlimit:4;stroke-dasharray:none;stroke-opacity:1" />
  </g>
  <g
     style="display:inline"
     id="layer9">
    <path
       id="path3296"
       d="M 26.058778,24.896359 49.311229,38.321167 V 99.501953 L 26.058778,86.077146 Z"
       style="fill:none;stroke:#000000;stroke-width:0.52916667;stroke-linecap:butt;stroke-linejoin:miter;stroke-opacity:1;stroke-miterlimit:4;stroke-dasharray:none" />
    <path
       id="path3300"
       d="M 26.058778,55.395351 49.311229,68.820159"
       style="display:inline;fill:none;stroke:#000000;stroke-width:0.52916667;stroke-linecap:butt;stroke-linejoin:miter;stroke-opacity:1;stroke-miterlimit:4;stroke-dasharray:none" />
    <path
       id="path3298"
       d="M 26.860587,26.312431 48.242148,38.65708 v 8.504653 L 26.860587,34.817084 Z"
       style="fill:none;stroke:#000000;stroke-width:0.52916667;stroke-linecap:butt;stroke-linejoin:miter;stroke-opacity:1;stroke-miterlimit:4;stroke-dasharray:none" />
    <path
       transform="translate(0.06681738,-0.31738256)"
       id="path3327"
       d="m 38.50242,36.760042 c -0.358254,-0.616025 -1.074833,-1.064872 -1.43316,-0.866153 -0.358326,0.198719 -0.358326,1.045143 1.24e-4,1.661542 0.358449,0.616398 1.074806,1.002129 1.433048,0.803191 0.358242,-0.198938 0.358242,-0.982554 -1.2e-5,-1.59858 z"
       style="fill:none;stroke:#000000;stroke-width:0.52916667;stroke-linecap:butt;stroke-linejoin:miter;stroke-opacity:1;stroke-miterlimit:4;stroke-dasharray:none" />
    <path
       transform="translate(-8.9404581,-5.6106648)"
       style="fill:none;stroke:#000000;stroke-width:0.52916667;stroke-linecap:butt;stroke-linejoin:miter;stroke-opacity:1;stroke-miterlimit:4;stroke-dasharray:none"
       d="m 38.50242,36.760042 c -0.358254,-0.616025 -1.074833,-1.064872 -1.43316,-0.866153 -0.358326,0.198719 -0.358326,1.045143 1.24e-4,1.661542 0.358449,0.616398 1.074806,1.002129 1.433048,0.803191 0.358242,-0.198938 0.358242,-0.982554 -1.2e-5,-1.59858 z"
       id="path3331" />
    <path
       style="fill:none;stroke:#000000;stroke-width:0.52916667;stroke-linecap:butt;stroke-linejoin:miter;stroke-opacity:1;stroke-miterlimit:4;stroke-dasharray:none"
       d="m 38.50242,36.760042 c -0.358254,-0.616025 -1.074833,-1.064872 -1.43316,-0.866153 -0.358326,0.198719 -0.358326,1.045143 1.24e-4,1.661542 0.358449,0.616398 1.074806,1.002129 1.433048,0.803191 0.358242,-0.198938 0.358242,-0.982554 -1.2e-5,-1.59858 z"
       id="path3337"
       transform="translate(8.1402892,4.4292884)" />
    <path
       style="fill:none;stroke:#000000;stroke-width:0.52916667;stroke-linecap:butt;stroke-linejoin:miter;stroke-opacity:1;stroke-miterlimit:4;stroke-dasharray:none"
       d="m 26.860587,36.174597 21.381561,12.344649 v 8.504653 L 26.860587,44.67925 Z"
       id="path3353" />
    <path
       style="fill:none;stroke:#000000;stroke-width:0.52916667;stroke-linecap:butt;stroke-linejoin:miter;stroke-opacity:1;stroke-miterlimit:4;stroke-dasharray:none"
       d="m 38.50242,36.760042 c -0.358254,-0.616025 -1.074833,-1.064872 -1.43316,-0.866153 -0.358326,0.198719 -0.358326,1.045143 1.24e-4,1.661542 0.358449,0.616398 1.074806,1.002129 1.433048,0.803191 0.358242,-0.198938 0.358242,-0.982554 -1.2e-5,-1.59858 z"
       id="path3355"
       transform="translate(0.06681738,9.5447843)" />
    <path
       id="path3359"
       d="m 38.50242,36.760042 c -0.358254,-0.616025 -1.074833,-1.064872 -1.43316,-0.866153 -0.358326,0.198719 -0.358326,1.045143 1.24e-4,1.661542 0.358449,0.616398 1.074806,1.002129 1.433048,0.803191 0.358242,-0.198938 0.358242,-0.982554 -1.2e-5,-1.59858 z"
       style="fill:none;stroke:#000000;stroke-width:0.52916667;stroke-linecap:butt;stroke-linejoin:miter;stroke-opacity:1;stroke-miterlimit:4;stroke-dasharray:none"
       transform="translate(-8.9404581,4.2515017)" />
    <path
       transform="translate(8.1402892,14.291455)"
       id="path3363"
       d="m 38.50242,36.760042 c -0.358254,-0.616025 -1.074833,-1.064872 -1.43316,-0.866153 -0.358326,0.198719 -0.358326,1.045143 1.24e-4,1.661542 0.358449,0.616398 1.074806,1.002129 1.433048,0.803191 0.358242,-0.198938 0.358242,-0.982554 -1.2e-5,-1.59858 z"
       style="fill:none;stroke:#000000;stroke-width:0.52916667;stroke-linecap:butt;stroke-linejoin:miter;stroke-opacity:1;stroke-miterlimit:4;stroke-dasharray:none" />
    <path
       id="path3367"
       d="m 26.860587,46.179312 21.381561,12.344649 v 8.504653 L 26.860587,54.683965 Z"
       style="fill:none;stroke:#000000;stroke-width:0.52916667;stroke-linecap:butt;stroke-linejoin:miter;stroke-opacity:1;stroke-miterlimit:4;stroke-dasharray:none" />
    <path
       transform="translate(0.06681738,19.549499)"
       id="path3369"
       d="m 38.50242,36.760042 c -0.358254,-0.616025 -1.074833,-1.064872 -1.43316,-0.866153 -0.358326,0.198719 -0.358326,1.045143 1.24e-4,1.661542 0.358449,0.616398 1.074806,1.002129 1.433048,0.803191 0.358242,-0.198938 0.358242,-0.982554 -1.2e-5,-1.59858 z"
       style="fill:none;stroke:#000000;stroke-width:0.52916667;stroke-linecap:butt;stroke-linejoin:miter;stroke-opacity:1;stroke-miterlimit:4;stroke-dasharray:none" />
    <path
       transform="translate(-8.9404581,14.256217)"
       style="fill:none;stroke:#000000;stroke-width:0.52916667;stroke-linecap:butt;stroke-linejoin:miter;stroke-opacity:1;stroke-miterlimit:4;stroke-dasharray:none"
       d="m 38.50242,36.760042 c -0.358254,-0.616025 -1.074833,-1.064872 -1.43316,-0.866153 -0.358326,0.198719 -0.358326,1.045143 1.24e-4,1.661542 0.358449,0.616398 1.074806,1.002129 1.433048,0.803191 0.358242,-0.198938 0.358242,-0.982554 -1.2e-5,-1.59858 z"
       id="path3373" />
    <path
       style="fill:none;stroke:#000000;stroke-width:0.52916667;stroke-linecap:butt;stroke-linejoin:miter;stroke-opacity:1;stroke-miterlimit:4;stroke-dasharray:none"
       d="m 38.50242,36.760042 c -0.358254,-0.616025 -1.074833,-1.064872 -1.43316,-0.866153 -0.358326,0.198719 -0.358326,1.045143 1.24e-4,1.661542 0.358449,0.616398 1.074806,1.002129 1.433048,0.803191 0.358242,-0.198938 0.358242,-0.982554 -1.2e-5,-1.59858 z"
       id="path3377"
       transform="translate(8.1402892,24.29617)" />
    <path
       style="fill:none;stroke:#000000;stroke-width:0.52916667;stroke-linecap:butt;stroke-linejoin:miter;stroke-opacity:1;stroke-miterlimit:4;stroke-dasharray:none"
       d="m 26.860587,56.857139 21.381561,12.344649 v 8.504653 L 26.860587,65.361792 Z"
       id="path3381" />
    <path
       style="fill:none;stroke:#000000;stroke-width:0.52916667;stroke-linecap:butt;stroke-linejoin:miter;stroke-opacity:1;stroke-miterlimit:4;stroke-dasharray:none"
       d="m 38.50242,36.760042 c -0.358254,-0.616025 -1.074833,-1.064872 -1.43316,-0.866153 -0.358326,0.198719 -0.358326,1.045143 1.24e-4,1.661542 0.358449,0.616398 1.074806,1.002129 1.433048,0.803191 0.358242,-0.198938 0.358242,-0.982554 -1.2e-5,-1.59858 z"
       id="path3383"
       transform="translate(0.06681738,30.227326)" />
    <path
       id="path3387"
       d="m 38.50242,36.760042 c -0.358254,-0.616025 -1.074833,-1.064872 -1.43316,-0.866153 -0.358326,0.198719 -0.358326,1.045143 1.24e-4,1.661542 0.358449,0.616398 1.074806,1.002129 1.433048,0.803191 0.358242,-0.198938 0.358242,-0.982554 -1.2e-5,-1.59858 z"
       style="fill:none;stroke:#000000;stroke-width:0.52916667;stroke-linecap:butt;stroke-linejoin:miter;stroke-opacity:1;stroke-miterlimit:4;stroke-dasharray:none"
       transform="translate(-8.9404581,24.934044)" />
    <path
       transform="translate(8.1402892,34.973997)"
       id="path3391"
       d="m 38.50242,36.760042 c -0.358254,-0.616025 -1.074833,-1.064872 -1.43316,-0.866153 -0.358326,0.198719 -0.358326,1.045143 1.24e-4,1.661542 0.358449,0.616398 1.074806,1.002129 1.433048,0.803191 0.358242,-0.198938 0.358242,-0.982554 -1.2e-5,-1.59858 z"
       style="fill:none;stroke:#000000;stroke-width:0.52916667;stroke-linecap:butt;stroke-linejoin:miter;stroke-opacity:1;stroke-miterlimit:4;stroke-dasharray:none" />
    <path
       id="path3395"
       d="m 26.860587,67.109743 21.381561,12.344649 v 8.504653 L 26.860587,75.614396 Z"
       style="fill:none;stroke:#000000;stroke-width:0.52916667;stroke-linecap:butt;stroke-linejoin:miter;stroke-opacity:1;stroke-miterlimit:4;stroke-dasharray:none" />
    <path
       transform="translate(0.06681738,40.47993)"
       id="path3397"
       d="m 38.50242,36.760042 c -0.358254,-0.616025 -1.074833,-1.064872 -1.43316,-0.866153 -0.358326,0.198719 -0.358326,1.045143 1.24e-4,1.661542 0.358449,0.616398 1.074806,1.002129 1.433048,0.803191 0.358242,-0.198938 0.358242,-0.982554 -1.2e-5,-1.59858 z"
       style="fill:none;stroke:#000000;stroke-width:0.52916667;stroke-linecap:butt;stroke-linejoin:miter;stroke-opacity:1;stroke-miterlimit:4;stroke-dasharray:none" />
    <path
       transform="translate(-8.9404581,35.186648)"
       style="fill:none;stroke:#000000;stroke-width:0.52916667;stroke-linecap:butt;stroke-linejoin:miter;stroke-opacity:1;stroke-miterlimit:4;stroke-dasharray:none"
       d="m 38.50242,36.760042 c -0.358254,-0.616025 -1.074833,-1.064872 -1.43316,-0.866153 -0.358326,0.198719 -0.358326,1.045143 1.24e-4,1.661542 0.358449,0.616398 1.074806,1.002129 1.433048,0.803191 0.358242,-0.198938 0.358242,-0.982554 -1.2e-5,-1.59858 z"
       id="path3401" />
    <path
       style="fill:none;stroke:#000000;stroke-width:0.52916667;stroke-linecap:butt;stroke-linejoin:miter;stroke-opacity:1;stroke-miterlimit:4;stroke-dasharray:none"
       d="m 38.50242,36.760042 c -0.358254,-0.616025 -1.074833,-1.064872 -1.43316,-0.866153 -0.358326,0.198719 -0.358326,1.045143 1.24e-4,1.661542 0.358449,0.616398 1.074806,1.002129 1.433048,0.803191 0.358242,-0.198938 0.358242,-0.982554 -1.2e-5,-1.59858 z"
       id="path3405"
       transform="translate(8.1402892,45.226601)" />
    <path
       style="fill:none;stroke:#000000;stroke-width:0.52916667;stroke-linecap:butt;stroke-linejoin:miter;stroke-opacity:1;stroke-miterlimit:4;stroke-dasharray:none"
       d="m 26.860587,76.84263 21.381561,12.344649 v 8.504653 L 26.860587,85.347283 Z"
       id="path3409" />
    <path
       style="fill:none;stroke:#000000;stroke-width:0.52916667;stroke-linecap:butt;stroke-linejoin:miter;stroke-opacity:1;stroke-miterlimit:4;stroke-dasharray:none"
       d="m 38.50242,36.760042 c -0.358254,-0.616025 -1.074833,-1.064872 -1.43316,-0.866153 -0.358326,0.198719 -0.358326,1.045143 1.24e-4,1.661542 0.358449,0.616398 1.074806,1.002129 1.433048,0.803191 0.358242,-0.198938 0.358242,-0.982554 -1.2e-5,-1.59858 z"
       id="path3411"
       transform="translate(0.06681738,50.212817)" />
    <path
       id="path3415"
       d="m 38.50242,36.760042 c -0.358254,-0.616025 -1.074833,-1.064872 -1.43316,-0.866153 -0.358326,0.198719 -0.358326,1.045143 1.24e-4,1.661542 0.358449,0.616398 1.074806,1.002129 1.433048,0.803191 0.358242,-0.198938 0.358242,-0.982554 -1.2e-5,-1.59858 z"
       style="fill:none;stroke:#000000;stroke-width:0.52916667;stroke-linecap:butt;stroke-linejoin:miter;stroke-opacity:1;stroke-miterlimit:4;stroke-dasharray:none"
       transform="translate(-8.9404581,44.919535)" />
    <path
       transform="translate(8.1402892,54.959488)"
       id="path3419"
       d="m 38.50242,36.760042 c -0.358254,-0.616025 -1.074833,-1.064872 -1.43316,-0.866153 -0.358326,0.198719 -0.358326,1.045143 1.24e-4,1.661542 0.358449,0.616398 1.074806,1.002129 1.433048,0.803191 0.358242,-0.198938 0.358242,-0.982554 -1.2e-5,-1.59858 z"
       style="fill:none;stroke:#000000;stroke-width:0.52916667;stroke-linecap:butt;stroke-linejoin:miter;stroke-opacity:1;stroke-miterlimit:4;stroke-dasharray:none" />
  </g>
  <g
     style="display:inline"
     id="layer10">
    <path
       id="path3424"
       d="M 54.522981,38.046075 78.577238,24.158344 V 52.177148 L 54.522981,66.064881 Z"
       style="fill:none;stroke:#000000;stroke-width:0.52916667;stroke-linecap:butt;stroke-linejoin:miter;stroke-opacity:1;stroke-miterlimit:4;stroke-dasharray:none" />
    <path
       id="path3426"
       d="M 55.458423,38.640718 V 64.614033 L 57.396128,63.4953 V 37.521983 Z"
       style="fill:none;stroke:#000000;stroke-width:0.52916667;stroke-linecap:butt;stroke-linejoin:miter;stroke-opacity:1;stroke-miterlimit:4;stroke-dasharray:none" />
    <path
       style="fill:none;stroke:#000000;stroke-width:0.52916667;stroke-linecap:butt;stroke-linejoin:miter;stroke-opacity:1;stroke-miterlimit:4;stroke-dasharray:none"
       d="m 58.398008,36.943549 v 25.973315 l 1.937705,-1.118733 V 35.824814 Z"
       id="path3428" />
    <path
       id="path3430"
       d="m 61.311044,35.261707 v 25.973315 l 1.937705,-1.118733 V 34.142972 Z"
       style="fill:none;stroke:#000000;stroke-width:0.52916667;stroke-linecap:butt;stroke-linejoin:miter;stroke-opacity:1;stroke-miterlimit:4;stroke-dasharray:none" />
    <path
       style="fill:none;stroke:#000000;stroke-width:0.52916667;stroke-linecap:butt;stroke-linejoin:miter;stroke-opacity:1;stroke-miterlimit:4;stroke-dasharray:none"
       d="M 64.112292,33.644405 V 59.61772 l 1.937705,-1.118733 V 32.52567 Z"
       id="path3432" />
    <path
       id="path3434"
       d="M 67.040305,31.953916 V 57.927231 L 68.97801,56.808498 V 30.835181 Z"
       style="fill:none;stroke:#000000;stroke-width:0.52916667;stroke-linecap:butt;stroke-linejoin:miter;stroke-opacity:1;stroke-miterlimit:4;stroke-dasharray:none" />
    <path
       style="fill:none;stroke:#000000;stroke-width:0.52916667;stroke-linecap:butt;stroke-linejoin:miter;stroke-opacity:1;stroke-miterlimit:4;stroke-dasharray:none"
       d="m 69.958008,30.269379 v 25.973315 l 1.937705,-1.118733 V 29.150644 Z"
       id="path3436" />
    <path
       id="path3438"
       d="M 72.796665,28.63048 V 54.603795 L 74.73437,53.485062 V 27.511745 Z"
       style="fill:none;stroke:#000000;stroke-width:0.52916667;stroke-linecap:butt;stroke-linejoin:miter;stroke-opacity:1;stroke-miterlimit:4;stroke-dasharray:none" />
    <path
       style="fill:none;stroke:#000000;stroke-width:0.52916667;stroke-linecap:butt;stroke-linejoin:miter;stroke-opacity:1;stroke-miterlimit:4;stroke-dasharray:none"
       d="m 75.642036,26.987704 v 25.973315 l 1.937705,-1.118733 V 25.868969 Z"
       id="path3440" />
    <path
       style="fill:none;stroke:#000000;stroke-width:0.52916667;stroke-linecap:butt;stroke-linejoin:miter;stroke-opacity:1;stroke-miterlimit:4;stroke-dasharray:none"
       d="M 54.522981,72.132935 78.577238,58.245204 V 86.264008 L 54.522981,100.15174 Z"
       id="path3442" />
    <path
       style="fill:none;stroke:#000000;stroke-width:0.52916667;stroke-linecap:butt;stroke-linejoin:miter;stroke-opacity:1;stroke-miterlimit:4;stroke-dasharray:none"
       d="M 55.458423,72.727578 V 98.700893 L 57.396128,97.58216 V 71.608843 Z"
       id="path3444" />
    <path
       id="path3446"
       d="m 58.398008,71.030409 v 25.973315 l 1.937705,-1.118733 V 69.911674 Z"
       style="fill:none;stroke:#000000;stroke-width:0.52916667;stroke-linecap:butt;stroke-linejoin:miter;stroke-opacity:1;stroke-miterlimit:4;stroke-dasharray:none" />
    <path
       style="fill:none;stroke:#000000;stroke-width:0.52916667;stroke-linecap:butt;stroke-linejoin:miter;stroke-opacity:1;stroke-miterlimit:4;stroke-dasharray:none"
       d="m 61.311044,69.348567 v 25.973315 l 1.937705,-1.118733 V 68.229832 Z"
       id="path3448" />
    <path
       id="path3450"
       d="M 64.112292,67.731265 V 93.70458 l 1.937705,-1.118733 V 66.61253 Z"
       style="fill:none;stroke:#000000;stroke-width:0.52916667;stroke-linecap:butt;stroke-linejoin:miter;stroke-opacity:1;stroke-miterlimit:4;stroke-dasharray:none" />
    <path
       style="fill:none;stroke:#000000;stroke-width:0.52916667;stroke-linecap:butt;stroke-linejoin:miter;stroke-opacity:1;stroke-miterlimit:4;stroke-dasharray:none"
       d="M 67.040305,66.040776 V 92.014091 L 68.97801,90.895358 V 64.922041 Z"
       id="path3452" />
    <path
       id="path3454"
       d="m 69.958008,64.356239 v 25.973315 l 1.937705,-1.118733 V 63.237504 Z"
       style="fill:none;stroke:#000000;stroke-width:0.52916667;stroke-linecap:butt;stroke-linejoin:miter;stroke-opacity:1;stroke-miterlimit:4;stroke-dasharray:none" />
    <path
       style="fill:none;stroke:#000000;stroke-width:0.52916667;stroke-linecap:butt;stroke-linejoin:miter;stroke-opacity:1;stroke-miterlimit:4;stroke-dasharray:none"
       d="M 72.796665,62.71734 V 88.690655 L 74.73437,87.571922 V 61.598605 Z"
       id="path3456" />
    <path
       id="path3458"
       d="m 75.642036,61.074564 v 25.973315 l 1.937705,-1.118733 V 59.955829 Z"
       style="fill:none;stroke:#000000;stroke-width:0.52916667;stroke-linecap:butt;stroke-linejoin:miter;stroke-opacity:1;stroke-miterlimit:4;stroke-dasharray:none" />
  </g>
</svg>
